<svg width="667" height="268" viewBox="0 0 667 268" fill="none" xmlns="http://www.w3.org/2000/svg">
<rect x="66.3979" width="600" height="32" fill="#DBDBED"/>
<rect x="66" width="510" height="32" fill="#2352DE"/>
<path d="M13.8301 23H11.7207V17.208H5.79688V23H3.69629V10.1504H5.79688V15.4062H11.7207V10.1504H13.8301V23ZM21.6523 23H19.5518V11.9521H15.7725V10.1504H25.4316V11.9521H21.6523V23ZM32.9639 23L29.2373 12.2686H29.167C29.2666 13.8623 29.3164 15.3564 29.3164 16.751V23H27.4092V10.1504H30.3711L33.9395 20.3721H33.9922L37.666 10.1504H40.6367V23H38.6152V16.6455C38.6152 16.0068 38.6299 15.1748 38.6592 14.1494C38.6943 13.124 38.7236 12.5029 38.7471 12.2861H38.6768L34.8184 23H32.9639ZM44.0205 23V10.1504H46.1211V21.1982H51.5615V23H44.0205Z" fill="#333333"/>
<rect x="66.0642" y="118" width="600" height="32" fill="#DBDBED"/>
<rect x="66.0642" y="118" width="480" height="32" fill="#2352DE"/>
<path d="M9.16309 129.768C7.95605 129.768 7.00684 130.195 6.31543 131.051C5.62402 131.906 5.27832 133.087 5.27832 134.593C5.27832 136.169 5.60938 137.361 6.27148 138.17C6.93945 138.979 7.90332 139.383 9.16309 139.383C9.70801 139.383 10.2354 139.33 10.7451 139.225C11.2549 139.113 11.7852 138.973 12.3359 138.803V140.604C11.3281 140.985 10.1855 141.176 8.9082 141.176C7.02734 141.176 5.58301 140.607 4.5752 139.471C3.56738 138.328 3.06348 136.696 3.06348 134.575C3.06348 133.239 3.30664 132.07 3.79297 131.068C4.28516 130.066 4.99414 129.299 5.91992 128.766C6.8457 128.232 7.93262 127.966 9.18066 127.966C10.4932 127.966 11.7061 128.241 12.8193 128.792L12.0635 130.541C11.6299 130.336 11.1699 130.157 10.6836 130.005C10.2031 129.847 9.69629 129.768 9.16309 129.768ZM22.5137 137.511C22.5137 138.653 22.1006 139.55 21.2744 140.2C20.4482 140.851 19.3086 141.176 17.8555 141.176C16.4023 141.176 15.2129 140.95 14.2871 140.499V138.513C14.873 138.788 15.4941 139.005 16.1504 139.163C16.8125 139.321 17.4277 139.4 17.9961 139.4C18.8281 139.4 19.4404 139.242 19.833 138.926C20.2314 138.609 20.4307 138.185 20.4307 137.651C20.4307 137.171 20.249 136.764 19.8857 136.43C19.5225 136.096 18.7725 135.7 17.6357 135.243C16.4639 134.769 15.6377 134.227 15.1572 133.617C14.6768 133.008 14.4365 132.275 14.4365 131.42C14.4365 130.348 14.8174 129.504 15.5791 128.889C16.3408 128.273 17.3633 127.966 18.6465 127.966C19.877 127.966 21.1016 128.235 22.3203 128.774L21.6523 130.488C20.5098 130.008 19.4902 129.768 18.5938 129.768C17.9141 129.768 17.3984 129.917 17.0469 130.216C16.6953 130.509 16.5195 130.898 16.5195 131.385C16.5195 131.719 16.5898 132.006 16.7305 132.246C16.8711 132.48 17.1025 132.703 17.4248 132.914C17.7471 133.125 18.3271 133.403 19.165 133.749C20.1084 134.142 20.7998 134.508 21.2393 134.848C21.6787 135.188 22.001 135.571 22.2061 135.999C22.4111 136.427 22.5137 136.931 22.5137 137.511ZM32.4102 137.511C32.4102 138.653 31.9971 139.55 31.1709 140.2C30.3447 140.851 29.2051 141.176 27.752 141.176C26.2988 141.176 25.1094 140.95 24.1836 140.499V138.513C24.7695 138.788 25.3906 139.005 26.0469 139.163C26.709 139.321 27.3242 139.4 27.8926 139.4C28.7246 139.4 29.3369 139.242 29.7295 138.926C30.1279 138.609 30.3271 138.185 30.3271 137.651C30.3271 137.171 30.1455 136.764 29.7822 136.43C29.4189 136.096 28.6689 135.7 27.5322 135.243C26.3604 134.769 25.5342 134.227 25.0537 133.617C24.5732 133.008 24.333 132.275 24.333 131.42C24.333 130.348 24.7139 129.504 25.4756 128.889C26.2373 128.273 27.2598 127.966 28.543 127.966C29.7734 127.966 30.998 128.235 32.2168 128.774L31.5488 130.488C30.4062 130.008 29.3867 129.768 28.4902 129.768C27.8105 129.768 27.2949 129.917 26.9434 130.216C26.5918 130.509 26.416 130.898 26.416 131.385C26.416 131.719 26.4863 132.006 26.627 132.246C26.7676 132.48 26.999 132.703 27.3213 132.914C27.6436 133.125 28.2236 133.403 29.0615 133.749C30.0049 134.142 30.6963 134.508 31.1357 134.848C31.5752 135.188 31.8975 135.571 32.1025 135.999C32.3076 136.427 32.4102 136.931 32.4102 137.511Z" fill="#333333"/>
<rect x="65.0632" y="236" width="600" height="32" fill="#DBDBED"/>
<rect x="65.0632" y="236" width="366" height="32" fill="#2352DE"/>
<path d="M2.07031 262.586C1.49609 262.586 1.01562 262.513 0.628906 262.366V260.6C1.12109 260.723 1.54883 260.784 1.91211 260.784C3.06055 260.784 3.63477 260.058 3.63477 258.604V246.15H5.74414V258.534C5.74414 259.847 5.43066 260.849 4.80371 261.54C4.18262 262.237 3.27148 262.586 2.07031 262.586ZM16.4844 255.511C16.4844 256.653 16.0713 257.55 15.2451 258.2C14.4189 258.851 13.2793 259.176 11.8262 259.176C10.373 259.176 9.18359 258.95 8.25781 258.499V256.513C8.84375 256.788 9.46484 257.005 10.1211 257.163C10.7832 257.321 11.3984 257.4 11.9668 257.4C12.7988 257.4 13.4111 257.242 13.8037 256.926C14.2021 256.609 14.4014 256.185 14.4014 255.651C14.4014 255.171 14.2197 254.764 13.8564 254.43C13.4932 254.096 12.7432 253.7 11.6064 253.243C10.4346 252.769 9.6084 252.227 9.12793 251.617C8.64746 251.008 8.40723 250.275 8.40723 249.42C8.40723 248.348 8.78809 247.504 9.5498 246.889C10.3115 246.273 11.334 245.966 12.6172 245.966C13.8477 245.966 15.0723 246.235 16.291 246.774L15.623 248.488C14.4805 248.008 13.4609 247.768 12.5645 247.768C11.8848 247.768 11.3691 247.917 11.0176 248.216C10.666 248.509 10.4902 248.898 10.4902 249.385C10.4902 249.719 10.5605 250.006 10.7012 250.246C10.8418 250.48 11.0732 250.703 11.3955 250.914C11.7178 251.125 12.2979 251.403 13.1357 251.749C14.0791 252.142 14.7705 252.508 15.21 252.848C15.6494 253.188 15.9717 253.571 16.1768 253.999C16.3818 254.427 16.4844 254.931 16.4844 255.511Z" fill="#333333"/>
</svg>
